<?xml version="1.0" encoding="UTF-8"?>
<svg id="Livello_2" data-name="Livello 2" xmlns="http://www.w3.org/2000/svg" xmlns:xlink="http://www.w3.org/1999/xlink" viewBox="0 0 272.46 272.16">
  <defs>
    <style>
      .cls-1 {
        fill: url(#Sfumatura_senza_nome_5);
      }

      .cls-2 {
        fill: url(#Sfumatura_senza_nome_5-3);
      }

      .cls-3 {
        fill: url(#Sfumatura_senza_nome_5-2);
      }

      .cls-4 {
        fill: url(#Sfumatura_senza_nome_5-4);
      }
    </style>
    <linearGradient id="Sfumatura_senza_nome_5" data-name="Sfumatura senza nome 5" x1="160.36" y1="161.75" x2="245.05" y2="243.09" gradientUnits="userSpaceOnUse">
      <stop offset="0" stop-color="#3aa434"/>
      <stop offset="1" stop-color="#abce90"/>
    </linearGradient>
    <linearGradient id="Sfumatura_senza_nome_5-2" data-name="Sfumatura senza nome 5" x1="393.8" y1="161.74" x2="478.48" y2="243.07" gradientTransform="translate(505.9) rotate(-180) scale(1 -1)" xlink:href="#Sfumatura_senza_nome_5"/>
    <linearGradient id="Sfumatura_senza_nome_5-3" data-name="Sfumatura senza nome 5" x1="160.36" y1="-215.98" x2="245.05" y2="-134.64" gradientTransform="translate(0 -105.57) scale(1 -1)" xlink:href="#Sfumatura_senza_nome_5"/>
    <linearGradient id="Sfumatura_senza_nome_5-4" data-name="Sfumatura senza nome 5" x1="393.8" y1="-216" x2="478.48" y2="-134.66" gradientTransform="translate(505.9 -105.57) rotate(-180)" xlink:href="#Sfumatura_senza_nome_5"/>
  </defs>
  <g id="Livello_1-2" data-name="Livello 1">
    <g>
      <path class="cls-1" d="M272.39,215.63c-.8-11.31-4.62-21.23-10.78-30.26-7.32-10.74-16.41-19.57-28.16-25.41-7.55-3.75-15.56-6.14-23.83-7.64-14.89-2.71-29.79-5.34-44.7-7.94-6.15-1.07-12.37-1.69-18.56-2.43-2.56-.3-3.82,.93-3.51,3.52,.47,3.92,1.11,7.82,1.68,11.73,1,6.87,1.99,13.74,3.01,20.61,1.55,10.44,3.25,20.86,5.22,31.23,1.26,6.62,2.85,13.13,5.69,19.26,10.06,21.7,26.48,35.94,49.75,41.95,10.8,2.79,21.6,2.7,32.14-1.31,13.01-4.94,21.88-14.2,27.26-26.9,3.21-7.57,4.63-15.53,4.77-23.73,.02-.99,.18-1.99,.03-2.67Z"/>
      <path class="cls-3" d="M.06,215.61c.8-11.31,4.62-21.23,10.78-30.26,7.32-10.74,16.41-19.57,28.16-25.41,7.55-3.75,15.56-6.14,23.83-7.64,14.89-2.71,29.79-5.34,44.7-7.94,6.15-1.07,12.37-1.69,18.56-2.43,2.56-.3,3.82,.93,3.51,3.52-.47,3.92-1.11,7.82-1.68,11.73-1,6.87-1.99,13.74-3.01,20.61-1.55,10.44-3.25,20.86-5.22,31.23-1.26,6.62-2.85,13.13-5.69,19.26-10.06,21.7-26.48,35.94-49.75,41.95-10.8,2.79-21.6,2.7-32.14-1.31-13.01-4.94-21.88-14.2-27.26-26.9C1.65,234.44,.23,226.48,.09,218.28c-.02-.99-.18-1.99-.03-2.67Z"/>
      <g>
        <path class="cls-2" d="M272.39,56.53c-.8,11.31-4.62,21.23-10.78,30.26-7.32,10.74-16.41,19.57-28.16,25.41-7.55,3.75-15.56,6.14-23.83,7.64-14.89,2.71-29.79,5.34-44.7,7.94-6.15,1.07-12.37,1.69-18.56,2.43-2.56,.3-3.82-.93-3.51-3.52,.47-3.92,1.11-7.82,1.68-11.73,1-6.87,1.99-13.74,3.01-20.61,1.55-10.44,3.25-20.86,5.22-31.23,1.26-6.62,2.85-13.13,5.69-19.26,10.06-21.7,26.48-35.94,49.75-41.95,10.8-2.79,21.6-2.7,32.14,1.31,13.01,4.94,21.88,14.2,27.26,26.9,3.21,7.57,4.63,15.53,4.77,23.73,.02,.99,.18,1.99,.03,2.67Z"/>
        <path class="cls-4" d="M.06,56.55c.8,11.31,4.62,21.23,10.78,30.26,7.32,10.74,16.41,19.57,28.16,25.41,7.55,3.75,15.56,6.14,23.83,7.64,14.89,2.71,29.79,5.34,44.7,7.94,6.15,1.07,12.37,1.69,18.56,2.43,2.56,.3,3.82-.93,3.51-3.52-.47-3.92-1.11-7.82-1.68-11.73-1-6.87-1.99-13.74-3.01-20.61-1.55-10.44-3.25-20.86-5.22-31.23-1.26-6.62-2.85-13.13-5.69-19.26C103.95,22.18,87.52,7.94,64.26,1.94,53.46-.85,42.66-.76,32.12,3.24,19.11,8.19,10.24,17.45,4.86,30.15,1.65,37.72,.23,45.68,.09,53.88c-.02,.99-.18,1.99-.03,2.67Z"/>
      </g>
    </g>
  </g>
</svg>